Griffith_Gothic-Black.ufo
<glyph name="exclam" format="1">
  <advance width="281"/>
  <unicode hex="0021"/>
  <outline>
    <contour>
      <point x="231" y="720" type="line"/>
      <point x="185" y="235" type="line"/>
      <point x="97" y="235" type="line"/>
      <point x="50" y="720" type="line"/>
    </contour>
    <contour>
      <point x="224" y="76" type="curve" smooth="yes"/>
      <point x="224" y="29"/>
      <point x="188" y="-7"/>
      <point x="141" y="-7" type="curve" smooth="yes"/>
      <point x="93" y="-7"/>
      <point x="57" y="29"/>
      <point x="57" y="76" type="curve" smooth="yes"/>
      <point x="57" y="124"/>
      <point x="93" y="159"/>
      <point x="141" y="159" type="curve" smooth="yes"/>
      <point x="188" y="159"/>
      <point x="224" y="124"/>
    </contour>
  </outline>
</glyph>
<glyph name="ampersand" format="1">
  <advance width="714"/>
  <unicode hex="0026"/>
  <outline>
    <contour>
      <point x="704" y="2" type="line"/>
      <point x="679" y="-4"/>
      <point x="661" y="-7"/>
      <point x="635" y="-7" type="curve" smooth="yes"/>
      <point x="570" y="-7"/>
      <point x="524" y="8"/>
      <point x="466" y="61" type="curve"/>
      <point x="406" y="14"/>
      <point x="340" y="-10"/>
      <point x="267" y="-10" type="curve" smooth="yes"/>
      <point x="115" y="-10"/>
      <point x="20" y="66"/>
      <point x="20" y="197" type="curve" smooth="yes"/>
      <point x="20" y="286"/>
      <point x="60" y="349"/>
      <point x="181" y="412" type="curve"/>
      <point x="142" y="471"/>
      <point x="124" y="517"/>
      <point x="124" y="567" type="curve" smooth="yes"/>
      <point x="124" y="667"/>
      <point x="198" y="732"/>
      <point x="315" y="732" type="curve" smooth="yes"/>
      <point x="423" y="732"/>
      <point x="483" y="664"/>
      <point x="483" y="576" type="curve" smooth="yes"/>
      <point x="483" y="502"/>
      <point x="435" y="448"/>
      <point x="348" y="399" type="curve"/>
      <point x="400" y="327"/>
      <point x="443" y="273"/>
      <point x="478" y="232" type="curve"/>
      <point x="513" y="283"/>
      <point x="544" y="349"/>
      <point x="568" y="425" type="curve"/>
      <point x="680" y="377" type="line"/>
      <point x="644" y="285"/>
      <point x="602" y="208"/>
      <point x="554" y="147" type="curve"/>
      <point x="591" y="110"/>
      <point x="615" y="101"/>
      <point x="645" y="101" type="curve" smooth="yes"/>
      <point x="670" y="101"/>
      <point x="684" y="104"/>
      <point x="704" y="109" type="curve"/>
    </contour>
    <contour>
      <point x="368" y="574" type="curve" smooth="yes"/>
      <point x="368" y="617"/>
      <point x="349" y="647"/>
      <point x="310" y="647" type="curve" smooth="yes"/>
      <point x="267" y="647"/>
      <point x="247" y="616"/>
      <point x="247" y="576" type="curve" smooth="yes"/>
      <point x="247" y="542"/>
      <point x="258" y="510"/>
      <point x="290" y="465" type="curve"/>
      <point x="344" y="499"/>
      <point x="368" y="535"/>
    </contour>
    <contour>
      <point x="391" y="137" type="curve"/>
      <point x="349" y="186"/>
      <point x="297" y="251"/>
      <point x="236" y="336" type="curve"/>
      <point x="184" y="302"/>
      <point x="165" y="264"/>
      <point x="165" y="219" type="curve" smooth="yes"/>
      <point x="165" y="147"/>
      <point x="215" y="96"/>
      <point x="289" y="96" type="curve" smooth="yes"/>
      <point x="325" y="96"/>
      <point x="359" y="110"/>
    </contour>
  </outline>
</glyph>
<glyph name="parenright" format="1">
  <advance width="373"/>
  <unicode hex="0029"/>
  <outline>
    <contour>
      <point x="333" y="320" type="curve" smooth="yes"/>
      <point x="333" y="136"/>
      <point x="247" y="3"/>
      <point x="146" y="-95" type="curve"/>
      <point x="15" y="-95" type="line"/>
      <point x="126" y="36"/>
      <point x="174" y="167"/>
      <point x="174" y="320" type="curve" smooth="yes"/>
      <point x="174" y="473"/>
      <point x="126" y="604"/>
      <point x="15" y="735" type="curve"/>
      <point x="146" y="735" type="line"/>
      <point x="247" y="637"/>
      <point x="333" y="504"/>
    </contour>
  </outline>
</glyph>
<glyph name="comma" format="1">
  <advance width="236"/>
  <unicode hex="002C"/>
  <outline>
    <contour>
      <point x="214" y="165" type="line"/>
      <point x="109" y="-115" type="line"/>
      <point x="26" y="-115" type="line"/>
      <point x="54" y="165" type="line"/>
    </contour>
  </outline>
</glyph>
<glyph name="hyphen" format="1">
  <advance width="348"/>
  <unicode hex="002D"/>
  <unicode hex="2010"/>
  <unicode hex="2011"/>
  <outline>
    <contour>
      <point x="310" y="223" type="line"/>
      <point x="38" y="223" type="line"/>
      <point x="38" y="353" type="line"/>
      <point x="310" y="353" type="line"/>
    </contour>
  </outline>
</glyph>
<glyph name="two" format="1">
  <advance width="567"/>
  <unicode hex="0032"/>
  <outline>
    <contour>
      <point x="530" y="0" type="line"/>
      <point x="38" y="0" type="line"/>
      <point x="38" y="94" type="line"/>
      <point x="73" y="191"/>
      <point x="138" y="264"/>
      <point x="251" y="351" type="curve" smooth="yes"/>
      <point x="333" y="413"/>
      <point x="372" y="455"/>
      <point x="372" y="518" type="curve" smooth="yes"/>
      <point x="372" y="578"/>
      <point x="339" y="616"/>
      <point x="281" y="616" type="curve" smooth="yes"/>
      <point x="228" y="616"/>
      <point x="190" y="584"/>
      <point x="146" y="493" type="curve"/>
      <point x="28" y="549" type="line"/>
      <point x="83" y="671"/>
      <point x="156" y="732"/>
      <point x="287" y="732" type="curve" smooth="yes"/>
      <point x="447" y="732"/>
      <point x="521" y="645"/>
      <point x="521" y="521" type="curve" smooth="yes"/>
      <point x="521" y="407"/>
      <point x="467" y="352"/>
      <point x="350" y="269" type="curve" smooth="yes"/>
      <point x="263" y="207"/>
      <point x="219" y="166"/>
      <point x="198" y="114" type="curve"/>
      <point x="530" y="114" type="line"/>
    </contour>
  </outline>
</glyph>
<glyph name="four" format="1">
  <advance width="617"/>
  <unicode hex="0034"/>
  <outline>
    <contour>
      <point x="596" y="177" type="line"/>
      <point x="501" y="177" type="line"/>
      <point x="501" y="0" type="line"/>
      <point x="349" y="0" type="line"/>
      <point x="349" y="177" type="line"/>
      <point x="26" y="177" type="line"/>
      <point x="26" y="288" type="line"/>
      <point x="310" y="720" type="line"/>
      <point x="501" y="720" type="line"/>
      <point x="501" y="265" type="line"/>
      <point x="596" y="265" type="line"/>
    </contour>
    <contour>
      <point x="349" y="265" type="line"/>
      <point x="349" y="596" type="line"/>
      <point x="340" y="596" type="line"/>
      <point x="128" y="274" type="line"/>
      <point x="128" y="265" type="line"/>
    </contour>
  </outline>
</glyph>
<glyph name="semicolon" format="1">
  <advance width="249"/>
  <unicode hex="003B"/>
  <outline>
    <contour>
      <point x="215" y="452" type="curve" smooth="yes"/>
      <point x="215" y="402"/>
      <point x="178" y="365"/>
      <point x="128" y="365" type="curve" smooth="yes"/>
      <point x="78" y="365"/>
      <point x="41" y="402"/>
      <point x="41" y="452" type="curve" smooth="yes"/>
      <point x="41" y="501"/>
      <point x="78" y="538"/>
      <point x="128" y="538" type="curve" smooth="yes"/>
      <point x="178" y="538"/>
      <point x="215" y="501"/>
    </contour>
    <contour>
      <point x="214" y="165" type="line"/>
      <point x="109" y="-115" type="line"/>
      <point x="26" y="-115" type="line"/>
      <point x="54" y="165" type="line"/>
    </contour>
  </outline>
</glyph>
<glyph name="at" format="1">
  <advance width="980"/>
  <unicode hex="0040"/>
  <outline>
    <contour>
      <point x="934" y="333" type="curve" smooth="yes"/>
      <point x="934" y="142"/>
      <point x="820" y="25"/>
      <point x="688" y="25" type="curve" smooth="yes"/>
      <point x="602" y="25"/>
      <point x="559" y="73"/>
      <point x="548" y="141" type="curve"/>
      <point x="544" y="141" type="line"/>
      <point x="501" y="69"/>
      <point x="442" y="25"/>
      <point x="379" y="25" type="curve" smooth="yes"/>
      <point x="300" y="25"/>
      <point x="255" y="85"/>
      <point x="255" y="190" type="curve" smooth="yes"/>
      <point x="255" y="338"/>
      <point x="323" y="519"/>
      <point x="445" y="519" type="curve" smooth="yes"/>
      <point x="515" y="519"/>
      <point x="548" y="476"/>
      <point x="571" y="414" type="curve"/>
      <point x="575" y="414" type="line"/>
      <point x="593" y="519" type="line"/>
      <point x="726" y="498" type="line"/>
      <point x="669" y="180" type="line" smooth="yes"/>
      <point x="658" y="119"/>
      <point x="678" y="76"/>
      <point x="731" y="76" type="curve" smooth="yes"/>
      <point x="814" y="76"/>
      <point x="889" y="185"/>
      <point x="889" y="331" type="curve" smooth="yes"/>
      <point x="889" y="554"/>
      <point x="732" y="694"/>
      <point x="507" y="694" type="curve" smooth="yes"/>
      <point x="273" y="694"/>
      <point x="91" y="504"/>
      <point x="91" y="266" type="curve" smooth="yes"/>
      <point x="91" y="15"/>
      <point x="253" y="-154"/>
      <point x="498" y="-154" type="curve" smooth="yes"/>
      <point x="619" y="-154"/>
      <point x="703" y="-131"/>
      <point x="792" y="-82" type="curve"/>
      <point x="811" y="-114" type="line"/>
      <point x="718" y="-164"/>
      <point x="626" y="-192"/>
      <point x="496" y="-192" type="curve" smooth="yes"/>
      <point x="226" y="-192"/>
      <point x="46" y="-10"/>
      <point x="46" y="265" type="curve" smooth="yes"/>
      <point x="46" y="529"/>
      <point x="256" y="732"/>
      <point x="510" y="732" type="curve" smooth="yes"/>
      <point x="749" y="732"/>
      <point x="934" y="574"/>
    </contour>
    <contour>
      <point x="557" y="334" type="curve" smooth="yes"/>
      <point x="557" y="386"/>
      <point x="535" y="427"/>
      <point x="496" y="427" type="curve" smooth="yes"/>
      <point x="438" y="427"/>
      <point x="391" y="318"/>
      <point x="391" y="194" type="curve" smooth="yes"/>
      <point x="391" y="140"/>
      <point x="410" y="107"/>
      <point x="447" y="107" type="curve" smooth="yes"/>
      <point x="504" y="107"/>
      <point x="557" y="222"/>
    </contour>
  </outline>
</glyph>
<glyph name="A" format="1">
  <advance width="687"/>
  <unicode hex="0041"/>
  <outline>
    <contour>
      <point x="671" y="0" type="line"/>
      <point x="508" y="0" type="line"/>
      <point x="463" y="163" type="line"/>
      <point x="219" y="163" type="line"/>
      <point x="174" y="0" type="line"/>
      <point x="16" y="0" type="line"/>
      <point x="240" y="723" type="line"/>
      <point x="447" y="723" type="line"/>
    </contour>
    <contour>
      <point x="439" y="266" type="line"/>
      <point x="344" y="606" type="line"/>
      <point x="338" y="606" type="line"/>
      <point x="243" y="266" type="line"/>
    </contour>
  </outline>
</glyph>
<glyph name="C" format="1">
  <advance width="609"/>
  <unicode hex="0043"/>
  <outline>
    <contour>
      <point x="585" y="224" type="line"/>
      <point x="557" y="74"/>
      <point x="472" y="-12"/>
      <point x="320" y="-12" type="curve" smooth="yes"/>
      <point x="151" y="-12"/>
      <point x="39" y="111"/>
      <point x="39" y="336" type="curve" smooth="yes"/>
      <point x="39" y="384" type="line" smooth="yes"/>
      <point x="39" y="608"/>
      <point x="150" y="732"/>
      <point x="320" y="732" type="curve" smooth="yes"/>
      <point x="485" y="732"/>
      <point x="558" y="635"/>
      <point x="582" y="499" type="curve"/>
      <point x="429" y="463" type="line"/>
      <point x="413" y="565"/>
      <point x="383" y="611"/>
      <point x="320" y="611" type="curve" smooth="yes"/>
      <point x="238" y="611"/>
      <point x="204" y="528"/>
      <point x="204" y="404" type="curve" smooth="yes"/>
      <point x="204" y="317" type="line" smooth="yes"/>
      <point x="204" y="193"/>
      <point x="239" y="109"/>
      <point x="322" y="109" type="curve" smooth="yes"/>
      <point x="388" y="109"/>
      <point x="420" y="157"/>
      <point x="438" y="259" type="curve"/>
    </contour>
  </outline>
</glyph>
<glyph name="D" format="1">
  <advance width="639"/>
  <unicode hex="0044"/>
  <outline>
    <contour>
      <point x="602" y="342" type="line" smooth="yes"/>
      <point x="602" y="119"/>
      <point x="484" y="0"/>
      <point x="298" y="0" type="curve" smooth="yes"/>
      <point x="58" y="0" type="line"/>
      <point x="58" y="720" type="line"/>
      <point x="300" y="720" type="line" smooth="yes"/>
      <point x="486" y="720"/>
      <point x="602" y="601"/>
      <point x="602" y="379" type="curve" smooth="yes"/>
    </contour>
    <contour>
      <point x="437" y="327" type="curve" smooth="yes"/>
      <point x="437" y="392" type="line" smooth="yes"/>
      <point x="437" y="531"/>
      <point x="389" y="599"/>
      <point x="293" y="599" type="curve" smooth="yes"/>
      <point x="215" y="599" type="line"/>
      <point x="215" y="121" type="line"/>
      <point x="295" y="121" type="line" smooth="yes"/>
      <point x="387" y="121"/>
      <point x="437" y="189"/>
    </contour>
  </outline>
</glyph>
<glyph name="H" format="1">
  <advance width="648"/>
  <unicode hex="0048"/>
  <outline>
    <contour>
      <point x="590" y="0" type="line"/>
      <point x="430" y="0" type="line"/>
      <point x="430" y="303" type="line"/>
      <point x="218" y="303" type="line"/>
      <point x="218" y="0" type="line"/>
      <point x="58" y="0" type="line"/>
      <point x="58" y="720" type="line"/>
      <point x="218" y="720" type="line"/>
      <point x="218" y="441" type="line"/>
      <point x="430" y="441" type="line"/>
      <point x="430" y="720" type="line"/>
      <point x="590" y="720" type="line"/>
    </contour>
  </outline>
</glyph>
<glyph name="L" format="1">
  <advance width="528"/>
  <unicode hex="004C"/>
  <outline>
    <contour>
      <point x="511" y="0" type="line"/>
      <point x="58" y="0" type="line"/>
      <point x="58" y="720" type="line"/>
      <point x="218" y="720" type="line"/>
      <point x="218" y="133" type="line"/>
      <point x="511" y="133" type="line"/>
    </contour>
  </outline>
</glyph>
<glyph name="M" format="1">
  <advance width="886"/>
  <unicode hex="004D"/>
  <outline>
    <contour>
      <point x="828" y="0" type="line"/>
      <point x="681" y="0" type="line"/>
      <point x="681" y="545" type="line"/>
      <point x="674" y="545" type="line"/>
      <point x="519" y="0" type="line"/>
      <point x="363" y="0" type="line"/>
      <point x="208" y="545" type="line"/>
      <point x="201" y="545" type="line"/>
      <point x="201" y="0" type="line"/>
      <point x="58" y="0" type="line"/>
      <point x="58" y="720" type="line"/>
      <point x="299" y="720" type="line"/>
      <point x="443" y="211" type="line"/>
      <point x="448" y="211" type="line"/>
      <point x="591" y="720" type="line"/>
      <point x="828" y="720" type="line"/>
    </contour>
  </outline>
</glyph>
<glyph name="R" format="1">
  <advance width="621"/>
  <unicode hex="0052"/>
  <outline>
    <contour>
      <point x="607" y="0" type="line"/>
      <point x="435" y="0" type="line"/>
      <point x="277" y="290" type="line"/>
      <point x="218" y="290" type="line"/>
      <point x="218" y="0" type="line"/>
      <point x="58" y="0" type="line"/>
      <point x="58" y="720" type="line"/>
      <point x="319" y="720" type="line" smooth="yes"/>
      <point x="477" y="720"/>
      <point x="576" y="652"/>
      <point x="576" y="506" type="curve" smooth="yes"/>
      <point x="576" y="406"/>
      <point x="524" y="339"/>
      <point x="430" y="312" type="curve"/>
    </contour>
    <contour>
      <point x="417" y="504" type="curve" smooth="yes"/>
      <point x="417" y="573"/>
      <point x="375" y="607"/>
      <point x="298" y="607" type="curve" smooth="yes"/>
      <point x="212" y="607" type="line"/>
      <point x="212" y="396" type="line"/>
      <point x="300" y="396" type="line" smooth="yes"/>
      <point x="376" y="396"/>
      <point x="417" y="433"/>
    </contour>
  </outline>
</glyph>
<glyph name="T" format="1">
  <advance width="591"/>
  <unicode hex="0054"/>
  <outline>
    <contour>
      <point x="572" y="587" type="line"/>
      <point x="376" y="587" type="line"/>
      <point x="376" y="0" type="line"/>
      <point x="216" y="0" type="line"/>
      <point x="216" y="587" type="line"/>
      <point x="19" y="587" type="line"/>
      <point x="19" y="720" type="line"/>
      <point x="572" y="720" type="line"/>
    </contour>
  </outline>
</glyph>
<glyph name="Y" format="1">
  <advance width="643"/>
  <unicode hex="0059"/>
  <outline>
    <contour>
      <point x="635" y="720" type="line"/>
      <point x="402" y="284" type="line"/>
      <point x="402" y="0" type="line"/>
      <point x="242" y="0" type="line"/>
      <point x="242" y="281" type="line"/>
      <point x="9" y="720" type="line"/>
      <point x="180" y="720" type="line"/>
      <point x="329" y="425" type="line"/>
      <point x="477" y="720" type="line"/>
    </contour>
  </outline>
</glyph>
<glyph name="asciicircum" format="1">
  <advance width="550"/>
  <unicode hex="005E"/>
  <outline>
    <contour>
      <point x="520" y="407" type="line"/>
      <point x="422" y="407" type="line"/>
      <point x="275" y="597" type="line"/>
      <point x="128" y="407" type="line"/>
      <point x="30" y="407" type="line"/>
      <point x="205" y="725" type="line"/>
      <point x="345" y="725" type="line"/>
    </contour>
  </outline>
</glyph>
<glyph name="c" format="1">
  <advance width="491"/>
  <unicode hex="0063"/>
  <outline>
    <contour>
      <point x="471" y="156" type="line"/>
      <point x="444" y="43"/>
      <point x="372" y="-10"/>
      <point x="258" y="-10" type="curve" smooth="yes"/>
      <point x="118" y="-10"/>
      <point x="30" y="91"/>
      <point x="30" y="255" type="curve" smooth="yes"/>
      <point x="30" y="277" type="line" smooth="yes"/>
      <point x="30" y="440"/>
      <point x="119" y="542"/>
      <point x="263" y="542" type="curve" smooth="yes"/>
      <point x="379" y="542"/>
      <point x="447" y="485"/>
      <point x="469" y="372" type="curve"/>
      <point x="335" y="345" type="line"/>
      <point x="323" y="413"/>
      <point x="305" y="444"/>
      <point x="261" y="444" type="curve" smooth="yes"/>
      <point x="207" y="444"/>
      <point x="180" y="392"/>
      <point x="180" y="271" type="curve" smooth="yes"/>
      <point x="180" y="261" type="line" smooth="yes"/>
      <point x="180" y="141"/>
      <point x="208" y="88"/>
      <point x="263" y="88" type="curve" smooth="yes"/>
      <point x="301" y="88"/>
      <point x="324" y="113"/>
      <point x="340" y="183" type="curve"/>
    </contour>
  </outline>
</glyph>
<glyph name="e" format="1">
  <advance width="502"/>
  <unicode hex="0065"/>
  <outline>
    <contour>
      <point x="473" y="50" type="line"/>
      <point x="403" y="10"/>
      <point x="349" y="-8"/>
      <point x="265" y="-8" type="curve" smooth="yes"/>
      <point x="118" y="-8"/>
      <point x="30" y="88"/>
      <point x="30" y="257" type="curve" smooth="yes"/>
      <point x="30" y="277" type="line" smooth="yes"/>
      <point x="30" y="440"/>
      <point x="118" y="542"/>
      <point x="251" y="542" type="curve" smooth="yes"/>
      <point x="388" y="542"/>
      <point x="469" y="442"/>
      <point x="469" y="276" type="curve" smooth="yes"/>
      <point x="469" y="231" type="line"/>
      <point x="170" y="231" type="line"/>
      <point x="175" y="130"/>
      <point x="220" y="94"/>
      <point x="288" y="94" type="curve" smooth="yes"/>
      <point x="335" y="94"/>
      <point x="381" y="109"/>
      <point x="436" y="142" type="curve"/>
    </contour>
    <contour>
      <point x="329" y="292" type="line"/>
      <point x="325" y="411"/>
      <point x="302" y="455"/>
      <point x="251" y="455" type="curve" smooth="yes"/>
      <point x="199" y="455"/>
      <point x="172" y="406"/>
      <point x="170" y="292" type="curve"/>
    </contour>
  </outline>
</glyph>
<glyph name="i" format="1">
  <advance width="262"/>
  <unicode hex="0069"/>
  <outline>
    <contour>
      <point x="212" y="610" type="line"/>
      <point x="50" y="610" type="line"/>
      <point x="50" y="727" type="line"/>
      <point x="212" y="727" type="line"/>
    </contour>
    <contour>
      <point x="206" y="0" type="line"/>
      <point x="56" y="0" type="line"/>
      <point x="56" y="532" type="line"/>
      <point x="206" y="532" type="line"/>
    </contour>
  </outline>
</glyph>
<glyph name="k" format="1">
  <advance width="544"/>
  <unicode hex="006B"/>
  <outline>
    <contour>
      <point x="546" y="0" type="line"/>
      <point x="383" y="0" type="line"/>
      <point x="214" y="267" type="line"/>
      <point x="214" y="270" type="line"/>
      <point x="377" y="532" type="line"/>
      <point x="536" y="532" type="line"/>
      <point x="364" y="271" type="line"/>
    </contour>
    <contour>
      <point x="202" y="0" type="line"/>
      <point x="51" y="0" type="line"/>
      <point x="51" y="733" type="line"/>
      <point x="202" y="757" type="line"/>
    </contour>
  </outline>
</glyph>
<glyph name="m" format="1">
  <advance width="828"/>
  <unicode hex="006D"/>
  <outline>
    <contour>
      <point x="783" y="0" type="line"/>
      <point x="632" y="0" type="line"/>
      <point x="632" y="368" type="line" smooth="yes"/>
      <point x="632" y="411"/>
      <point x="616" y="433"/>
      <point x="579" y="433" type="curve" smooth="yes"/>
      <point x="551" y="433"/>
      <point x="521" y="413"/>
      <point x="492" y="377" type="curve"/>
      <point x="492" y="0" type="line"/>
      <point x="342" y="0" type="line"/>
      <point x="342" y="368" type="line" smooth="yes"/>
      <point x="342" y="411"/>
      <point x="325" y="433"/>
      <point x="288" y="433" type="curve" smooth="yes"/>
      <point x="260" y="433"/>
      <point x="230" y="413"/>
      <point x="202" y="377" type="curve"/>
      <point x="202" y="0" type="line"/>
      <point x="51" y="0" type="line"/>
      <point x="51" y="517" type="line"/>
      <point x="202" y="541" type="line"/>
      <point x="202" y="423" type="line"/>
      <point x="206" y="423" type="line"/>
      <point x="265" y="500"/>
      <point x="312" y="539"/>
      <point x="378" y="539" type="curve" smooth="yes"/>
      <point x="445" y="539"/>
      <point x="483" y="500"/>
      <point x="490" y="430" type="curve"/>
      <point x="490" y="423" type="line"/>
      <point x="497" y="423" type="line"/>
      <point x="556" y="500"/>
      <point x="602" y="539"/>
      <point x="669" y="539" type="curve" smooth="yes"/>
      <point x="743" y="539"/>
      <point x="783" y="492"/>
      <point x="783" y="403" type="curve" smooth="yes"/>
    </contour>
  </outline>
</glyph>
<glyph name="r" format="1">
  <advance width="418"/>
  <unicode hex="0072"/>
  <outline>
    <contour>
      <point x="405" y="387" type="line"/>
      <point x="317" y="375"/>
      <point x="251" y="335"/>
      <point x="202" y="284" type="curve"/>
      <point x="202" y="0" type="line"/>
      <point x="51" y="0" type="line"/>
      <point x="51" y="517" type="line"/>
      <point x="202" y="541" type="line"/>
      <point x="202" y="338" type="line"/>
      <point x="206" y="338" type="line"/>
      <point x="274" y="471"/>
      <point x="335" y="531"/>
      <point x="405" y="541" type="curve"/>
    </contour>
  </outline>
</glyph>
<glyph name="y" format="1">
  <advance width="534"/>
  <unicode hex="0079"/>
  <outline>
    <contour>
      <point x="521" y="532" type="line"/>
      <point x="335" y="-49" type="line" smooth="yes"/>
      <point x="300" y="-159"/>
      <point x="248" y="-192"/>
      <point x="147" y="-192" type="curve" smooth="yes"/>
      <point x="95" y="-192"/>
      <point x="63" y="-184"/>
      <point x="28" y="-171" type="curve"/>
      <point x="28" y="-73" type="line"/>
      <point x="58" y="-73" type="line"/>
      <point x="75" y="-100"/>
      <point x="91" y="-113"/>
      <point x="125" y="-113" type="curve" smooth="yes"/>
      <point x="159" y="-113"/>
      <point x="181" y="-97"/>
      <point x="193" y="-65" type="curve" smooth="yes"/>
      <point x="203" y="-39" type="line"/>
      <point x="13" y="532" type="line"/>
      <point x="168" y="532" type="line"/>
      <point x="271" y="142" type="line"/>
      <point x="374" y="532" type="line"/>
    </contour>
  </outline>
</glyph>
<glyph name="z" format="1">
  <advance width="459"/>
  <unicode hex="007A"/>
  <outline>
    <contour>
      <point x="435" y="0" type="line"/>
      <point x="26" y="0" type="line"/>
      <point x="26" y="89" type="line"/>
      <point x="265" y="430" type="line"/>
      <point x="41" y="430" type="line"/>
      <point x="41" y="531" type="line"/>
      <point x="435" y="531" type="line"/>
      <point x="435" y="442" type="line"/>
      <point x="196" y="101" type="line"/>
      <point x="435" y="101" type="line"/>
    </contour>
  </outline>
</glyph>
<glyph name="braceleft" format="1">
  <advance width="442"/>
  <unicode hex="007B"/>
  <outline>
    <contour>
      <point x="417" y="-80" type="line"/>
      <point x="275" y="-80" type="line" smooth="yes"/>
      <point x="177" y="-80"/>
      <point x="126" y="-37"/>
      <point x="126" y="46" type="curve" smooth="yes"/>
      <point x="126" y="89"/>
      <point x="146" y="149"/>
      <point x="146" y="193" type="curve" smooth="yes"/>
      <point x="146" y="264"/>
      <point x="90" y="290"/>
      <point x="15" y="290" type="curve"/>
      <point x="15" y="350" type="line"/>
      <point x="90" y="350"/>
      <point x="146" y="376"/>
      <point x="146" y="447" type="curve" smooth="yes"/>
      <point x="146" y="491"/>
      <point x="126" y="551"/>
      <point x="126" y="594" type="curve" smooth="yes"/>
      <point x="126" y="677"/>
      <point x="177" y="720"/>
      <point x="275" y="720" type="curve" smooth="yes"/>
      <point x="417" y="720" type="line"/>
      <point x="417" y="659" type="line"/>
      <point x="342" y="659" type="line" smooth="yes"/>
      <point x="291" y="659"/>
      <point x="266" y="632"/>
      <point x="266" y="589" type="curve" smooth="yes"/>
      <point x="266" y="554"/>
      <point x="286" y="496"/>
      <point x="286" y="447" type="curve" smooth="yes"/>
      <point x="286" y="370"/>
      <point x="237" y="343"/>
      <point x="181" y="324" type="curve"/>
      <point x="181" y="316" type="line"/>
      <point x="237" y="297"/>
      <point x="286" y="270"/>
      <point x="286" y="193" type="curve" smooth="yes"/>
      <point x="286" y="144"/>
      <point x="266" y="86"/>
      <point x="266" y="51" type="curve" smooth="yes"/>
      <point x="266" y="8"/>
      <point x="291" y="-19"/>
      <point x="342" y="-19" type="curve" smooth="yes"/>
      <point x="417" y="-19" type="line"/>
    </contour>
  </outline>
</glyph>
<glyph name="section" format="1">
  <advance width="602"/>
  <unicode hex="00A7"/>
  <outline>
    <contour>
      <point x="576" y="366" type="curve" smooth="yes"/>
      <point x="576" y="301"/>
      <point x="517" y="256"/>
      <point x="416" y="246" type="curve"/>
      <point x="416" y="240" type="line"/>
      <point x="481" y="217"/>
      <point x="516" y="177"/>
      <point x="516" y="119" type="curve" smooth="yes"/>
      <point x="516" y="41"/>
      <point x="448" y="-12"/>
      <point x="316" y="-12" type="curve" smooth="yes"/>
      <point x="219" y="-12"/>
      <point x="151" y="6"/>
      <point x="75" y="48" type="curve"/>
      <point x="127" y="135" type="line"/>
      <point x="195" y="98"/>
      <point x="259" y="82"/>
      <point x="322" y="82" type="curve" smooth="yes"/>
      <point x="370" y="82"/>
      <point x="395" y="98"/>
      <point x="395" y="122" type="curve" smooth="yes"/>
      <point x="395" y="152"/>
      <point x="380" y="169"/>
      <point x="244" y="203" type="curve" smooth="yes"/>
      <point x="78" y="244"/>
      <point x="26" y="289"/>
      <point x="26" y="354" type="curve" smooth="yes"/>
      <point x="26" y="419"/>
      <point x="85" y="464"/>
      <point x="186" y="474" type="curve"/>
      <point x="186" y="480" type="line"/>
      <point x="121" y="503"/>
      <point x="85" y="543"/>
      <point x="85" y="601" type="curve" smooth="yes"/>
      <point x="85" y="679"/>
      <point x="154" y="732"/>
      <point x="286" y="732" type="curve" smooth="yes"/>
      <point x="383" y="732"/>
      <point x="450" y="714"/>
      <point x="527" y="672" type="curve"/>
      <point x="474" y="585" type="line"/>
      <point x="407" y="622"/>
      <point x="343" y="638"/>
      <point x="280" y="638" type="curve" smooth="yes"/>
      <point x="232" y="638"/>
      <point x="206" y="622"/>
      <point x="206" y="598" type="curve" smooth="yes"/>
      <point x="206" y="568"/>
      <point x="222" y="551"/>
      <point x="358" y="517" type="curve" smooth="yes"/>
      <point x="523" y="476"/>
      <point x="576" y="431"/>
    </contour>
    <contour>
      <point x="467" y="342" type="curve" smooth="yes"/>
      <point x="467" y="377"/>
      <point x="433" y="401"/>
      <point x="347" y="425" type="curve" smooth="yes"/>
      <point x="312" y="435"/>
      <point x="277" y="440"/>
      <point x="240" y="440" type="curve" smooth="yes"/>
      <point x="177" y="440"/>
      <point x="135" y="418"/>
      <point x="135" y="378" type="curve" smooth="yes"/>
      <point x="135" y="343"/>
      <point x="169" y="319"/>
      <point x="254" y="295" type="curve" smooth="yes"/>
      <point x="290" y="285"/>
      <point x="325" y="280"/>
      <point x="362" y="280" type="curve" smooth="yes"/>
      <point x="425" y="280"/>
      <point x="467" y="302"/>
    </contour>
  </outline>
</glyph>
<glyph name="guillemotleft" format="1">
  <advance width="507"/>
  <unicode hex="00AB"/>
  <outline>
    <contour>
      <point x="479" y="70" type="line"/>
      <point x="398" y="70" type="line"/>
      <point x="236" y="266" type="line"/>
      <point x="398" y="462" type="line"/>
      <point x="479" y="462" type="line"/>
      <point x="389" y="266" type="line"/>
    </contour>
    <contour>
      <point x="260" y="70" type="line"/>
      <point x="179" y="70" type="line"/>
      <point x="17" y="266" type="line"/>
      <point x="179" y="462" type="line"/>
      <point x="260" y="462" type="line"/>
      <point x="170" y="266" type="line"/>
    </contour>
  </outline>
</glyph>
<glyph name="paragraph" format="1">
  <advance width="554"/>
  <unicode hex="00B6"/>
  <outline>
    <contour>
      <point x="488" y="0" type="line"/>
      <point x="423" y="0" type="line"/>
      <point x="423" y="660" type="line"/>
      <point x="336" y="660" type="line"/>
      <point x="336" y="0" type="line"/>
      <point x="272" y="0" type="line"/>
      <point x="272" y="310" type="line"/>
      <point x="112" y="313"/>
      <point x="25" y="390"/>
      <point x="25" y="514" type="curve" smooth="yes"/>
      <point x="25" y="647"/>
      <point x="121" y="720"/>
      <point x="275" y="720" type="curve" smooth="yes"/>
      <point x="488" y="720" type="line"/>
    </contour>
  </outline>
</glyph>
<glyph name="ordmasculine" format="1">
  <advance width="404"/>
  <unicode hex="00BA"/>
  <outline>
    <contour>
      <point x="362" y="542" type="curve" smooth="yes"/>
      <point x="362" y="426"/>
      <point x="302" y="357"/>
      <point x="202" y="357" type="curve" smooth="yes"/>
      <point x="101" y="357"/>
      <point x="42" y="426"/>
      <point x="42" y="542" type="curve" smooth="yes"/>
      <point x="42" y="658"/>
      <point x="101" y="727"/>
      <point x="202" y="727" type="curve" smooth="yes"/>
      <point x="302" y="727"/>
      <point x="362" y="658"/>
    </contour>
    <contour>
      <point x="355" y="244" type="line"/>
      <point x="49" y="244" type="line"/>
      <point x="49" y="299" type="line"/>
      <point x="355" y="299" type="line"/>
    </contour>
    <contour>
      <point x="259" y="541" type="curve" smooth="yes"/>
      <point x="259" y="625"/>
      <point x="240" y="663"/>
      <point x="202" y="663" type="curve" smooth="yes"/>
      <point x="163" y="663"/>
      <point x="145" y="626"/>
      <point x="145" y="543" type="curve" smooth="yes"/>
      <point x="145" y="459"/>
      <point x="163" y="421"/>
      <point x="202" y="421" type="curve" smooth="yes"/>
      <point x="240" y="421"/>
      <point x="259" y="458"/>
    </contour>
  </outline>
</glyph>
<glyph name="AE" format="1">
  <advance width="959"/>
  <unicode hex="00C6"/>
  <outline>
    <contour>
      <point x="930" y="0" type="line"/>
      <point x="464" y="0" type="line"/>
      <point x="464" y="163" type="line"/>
      <point x="237" y="163" type="line"/>
      <point x="162" y="0" type="line"/>
      <point x="3" y="0" type="line"/>
      <point x="350" y="720" type="line"/>
      <point x="918" y="720" type="line"/>
      <point x="918" y="596" type="line"/>
      <point x="618" y="596" type="line"/>
      <point x="618" y="430" type="line"/>
      <point x="841" y="430" type="line"/>
      <point x="841" y="313" type="line"/>
      <point x="618" y="313" type="line"/>
      <point x="618" y="124" type="line"/>
      <point x="930" y="124" type="line"/>
    </contour>
    <contour>
      <point x="464" y="266" type="line"/>
      <point x="464" y="603" type="line"/>
      <point x="439" y="603" type="line"/>
      <point x="281" y="266" type="line"/>
    </contour>
  </outline>
</glyph>
<glyph name="Eth" format="1">
  <advance width="677"/>
  <unicode hex="00D0"/>
  <outline>
    <contour>
      <point x="641" y="342" type="line" smooth="yes"/>
      <point x="641" y="119"/>
      <point x="523" y="0"/>
      <point x="337" y="0" type="curve" smooth="yes"/>
      <point x="97" y="0" type="line"/>
      <point x="97" y="310" type="line"/>
      <point x="20" y="310" type="line"/>
      <point x="20" y="434" type="line"/>
      <point x="97" y="434" type="line"/>
      <point x="97" y="720" type="line"/>
      <point x="338" y="720" type="line" smooth="yes"/>
      <point x="525" y="720"/>
      <point x="641" y="601"/>
      <point x="641" y="379" type="curve" smooth="yes"/>
    </contour>
    <contour>
      <point x="475" y="327" type="curve" smooth="yes"/>
      <point x="475" y="392" type="line" smooth="yes"/>
      <point x="475" y="531"/>
      <point x="427" y="599"/>
      <point x="331" y="599" type="curve" smooth="yes"/>
      <point x="247" y="599" type="line"/>
      <point x="247" y="434" type="line"/>
      <point x="349" y="434" type="line"/>
      <point x="349" y="310" type="line"/>
      <point x="247" y="310" type="line"/>
      <point x="247" y="121" type="line"/>
      <point x="333" y="121" type="line" smooth="yes"/>
      <point x="426" y="121"/>
      <point x="475" y="189"/>
    </contour>
  </outline>
</glyph>
<glyph name="Oslash" format="1">
  <advance width="646"/>
  <unicode hex="00D8"/>
  <outline>
    <contour>
      <point x="607" y="336" type="line" smooth="yes"/>
      <point x="607" y="112"/>
      <point x="495" y="-12"/>
      <point x="323" y="-12" type="curve" smooth="yes"/>
      <point x="272" y="-12"/>
      <point x="227" y="0"/>
      <point x="189" y="21" type="curve"/>
      <point x="131" y="-95" type="line"/>
      <point x="39" y="-95" type="line"/>
      <point x="127" y="65" type="line"/>
      <point x="70" y="124"/>
      <point x="39" y="215"/>
      <point x="39" y="336" type="curve" smooth="yes"/>
      <point x="39" y="384" type="line" smooth="yes"/>
      <point x="39" y="608"/>
      <point x="150" y="732"/>
      <point x="323" y="732" type="curve" smooth="yes"/>
      <point x="373" y="732"/>
      <point x="418" y="721"/>
      <point x="456" y="699" type="curve"/>
      <point x="515" y="817" type="line"/>
      <point x="607" y="817" type="line"/>
      <point x="518" y="656" type="line"/>
      <point x="575" y="597"/>
      <point x="607" y="506"/>
      <point x="607" y="384" type="curve" smooth="yes"/>
    </contour>
    <contour>
      <point x="401" y="586" type="line"/>
      <point x="382" y="606"/>
      <point x="357" y="617"/>
      <point x="323" y="617" type="curve" smooth="yes"/>
      <point x="239" y="617"/>
      <point x="196" y="539"/>
      <point x="196" y="404" type="curve" smooth="yes"/>
      <point x="196" y="317" type="line" smooth="yes"/>
      <point x="196" y="277"/>
      <point x="202" y="234"/>
      <point x="210" y="206" type="curve"/>
    </contour>
    <contour>
      <point x="450" y="316" type="curve" smooth="yes"/>
      <point x="450" y="403" type="line" smooth="yes"/>
      <point x="450" y="443"/>
      <point x="446" y="491"/>
      <point x="436" y="520" type="curve"/>
      <point x="246" y="137" type="line"/>
      <point x="263" y="115"/>
      <point x="291" y="103"/>
      <point x="323" y="103" type="curve" smooth="yes"/>
      <point x="407" y="103"/>
      <point x="450" y="180"/>
    </contour>
  </outline>
</glyph>
<glyph name="Thorn" format="1">
  <advance width="592"/>
  <unicode hex="00DE"/>
  <outline>
    <contour>
      <point x="570" y="376" type="curve" smooth="yes"/>
      <point x="570" y="224"/>
      <point x="472" y="148"/>
      <point x="300" y="148" type="curve" smooth="yes"/>
      <point x="218" y="148" type="line"/>
      <point x="218" y="0" type="line"/>
      <point x="58" y="0" type="line"/>
      <point x="58" y="720" type="line"/>
      <point x="218" y="720" type="line"/>
      <point x="218" y="592" type="line"/>
      <point x="308" y="592" type="line" smooth="yes"/>
      <point x="468" y="592"/>
      <point x="570" y="522"/>
    </contour>
    <contour>
      <point x="410" y="374" type="curve" smooth="yes"/>
      <point x="410" y="443"/>
      <point x="369" y="479"/>
      <point x="291" y="479" type="curve" smooth="yes"/>
      <point x="212" y="479" type="line"/>
      <point x="212" y="263" type="line"/>
      <point x="293" y="263" type="line" smooth="yes"/>
      <point x="370" y="263"/>
      <point x="410" y="303"/>
    </contour>
  </outline>
</glyph>
<glyph name="oe" format="1">
  <advance width="825"/>
  <unicode hex="0153"/>
  <outline>
    <contour>
      <point x="796" y="50" type="line"/>
      <point x="726" y="10"/>
      <point x="677" y="-8"/>
      <point x="601" y="-8" type="curve" smooth="yes"/>
      <point x="506" y="-8"/>
      <point x="459" y="27"/>
      <point x="429" y="93" type="curve"/>
      <point x="421" y="93" type="line"/>
      <point x="398" y="35"/>
      <point x="345" y="-10"/>
      <point x="258" y="-10" type="curve" smooth="yes"/>
      <point x="117" y="-10"/>
      <point x="30" y="91"/>
      <point x="30" y="255" type="curve" smooth="yes"/>
      <point x="30" y="277" type="line" smooth="yes"/>
      <point x="30" y="440"/>
      <point x="118" y="542"/>
      <point x="254" y="542" type="curve" smooth="yes"/>
      <point x="337" y="542"/>
      <point x="395" y="504"/>
      <point x="421" y="439" type="curve"/>
      <point x="429" y="439" type="line"/>
      <point x="456" y="504"/>
      <point x="509" y="542"/>
      <point x="584" y="542" type="curve" smooth="yes"/>
      <point x="711" y="542"/>
      <point x="792" y="442"/>
      <point x="792" y="276" type="curve" smooth="yes"/>
      <point x="792" y="231" type="line"/>
      <point x="493" y="231" type="line"/>
      <point x="498" y="130"/>
      <point x="543" y="94"/>
      <point x="611" y="94" type="curve" smooth="yes"/>
      <point x="658" y="94"/>
      <point x="704" y="109"/>
      <point x="759" y="142" type="curve"/>
    </contour>
    <contour>
      <point x="652" y="292" type="line"/>
      <point x="648" y="411"/>
      <point x="625" y="455"/>
      <point x="574" y="455" type="curve" smooth="yes"/>
      <point x="522" y="455"/>
      <point x="495" y="406"/>
      <point x="493" y="292" type="curve"/>
    </contour>
    <contour>
      <point x="349" y="254" type="curve" smooth="yes"/>
      <point x="349" y="278" type="line" smooth="yes"/>
      <point x="349" y="398"/>
      <point x="321" y="451"/>
      <point x="264" y="451" type="curve" smooth="yes"/>
      <point x="207" y="451"/>
      <point x="180" y="398"/>
      <point x="180" y="278" type="curve" smooth="yes"/>
      <point x="180" y="255" type="line" smooth="yes"/>
      <point x="180" y="134"/>
      <point x="207" y="81"/>
      <point x="264" y="81" type="curve" smooth="yes"/>
      <point x="321" y="81"/>
      <point x="349" y="134"/>
    </contour>
  </outline>
</glyph>
<glyph name="caron" format="1">
  <advance width="500"/>
  <unicode hex="02C7"/>
  <outline>
    <contour>
      <point x="419" y="758" type="line"/>
      <point x="306" y="592" type="line"/>
      <point x="194" y="592" type="line"/>
      <point x="81" y="758" type="line"/>
      <point x="154" y="758" type="line"/>
      <point x="251" y="674" type="line"/>
      <point x="348" y="758" type="line"/>
    </contour>
  </outline>
</glyph>
<glyph name="tilde" format="1">
  <advance width="500"/>
  <unicode hex="02DC"/>
  <outline>
    <contour>
      <point x="422" y="740" type="line"/>
      <point x="427" y="637"/>
      <point x="396" y="591"/>
      <point x="328" y="591" type="curve" smooth="yes"/>
      <point x="264" y="591"/>
      <point x="220" y="644"/>
      <point x="184" y="644" type="curve" smooth="yes"/>
      <point x="160" y="644"/>
      <point x="150" y="629"/>
      <point x="149" y="593" type="curve"/>
      <point x="78" y="593" type="line"/>
      <point x="73" y="696"/>
      <point x="104" y="742"/>
      <point x="172" y="742" type="curve" smooth="yes"/>
      <point x="236" y="742"/>
      <point x="280" y="689"/>
      <point x="316" y="689" type="curve" smooth="yes"/>
      <point x="340" y="689"/>
      <point x="350" y="704"/>
      <point x="351" y="740" type="curve"/>
    </contour>
  </outline>
</glyph>
<glyph name="endash" format="1">
  <advance width="500"/>
  <unicode hex="2013"/>
  <outline>
    <contour>
      <point x="464" y="226" type="line"/>
      <point x="36" y="226" type="line"/>
      <point x="36" y="350" type="line"/>
      <point x="464" y="350" type="line"/>
    </contour>
  </outline>
</glyph>
<glyph name="emdash" format="1">
  <advance width="1000"/>
  <unicode hex="2014"/>
  <outline>
    <contour>
      <point x="964" y="226" type="line"/>
      <point x="36" y="226" type="line"/>
      <point x="36" y="350" type="line"/>
      <point x="964" y="350" type="line"/>
    </contour>
  </outline>
</glyph>
<glyph name="quoteleft" format="1">
  <advance width="236"/>
  <unicode hex="2018"/>
  <unicode hex="02BB"/>
  <outline>
    <contour>
      <point x="206" y="440" type="line"/>
      <point x="123" y="440" type="line"/>
      <point x="17" y="720" type="line"/>
      <point x="178" y="720" type="line"/>
    </contour>
  </outline>
</glyph>
<glyph name="dagger" format="1">
  <advance width="480"/>
  <unicode hex="2020"/>
  <outline>
    <contour>
      <point x="456" y="437" type="line"/>
      <point x="283" y="472" type="line"/>
      <point x="319" y="340" type="line"/>
      <point x="267" y="0" type="line"/>
      <point x="213" y="0" type="line"/>
      <point x="161" y="340" type="line"/>
      <point x="197" y="472" type="line"/>
      <point x="25" y="437" type="line"/>
      <point x="25" y="552" type="line"/>
      <point x="197" y="516" type="line"/>
      <point x="161" y="720" type="line"/>
      <point x="319" y="720" type="line"/>
      <point x="283" y="516" type="line"/>
      <point x="456" y="552" type="line"/>
    </contour>
  </outline>
</glyph>
<glyph name="guilsinglright" format="1">
  <advance width="289"/>
  <unicode hex="203A"/>
  <outline>
    <contour>
      <point x="272" y="266" type="line"/>
      <point x="110" y="70" type="line"/>
      <point x="29" y="70" type="line"/>
      <point x="118" y="266" type="line"/>
      <point x="29" y="462" type="line"/>
      <point x="110" y="462" type="line"/>
    </contour>
  </outline>
</glyph>
<glyph name="macron" format="1">
  <advance width="500"/>
  <outline>
    <contour>
      <point x="399" y="623" type="line"/>
      <point x="101" y="623" type="line"/>
      <point x="101" y="712" type="line"/>
      <point x="399" y="712" type="line"/>
    </contour>
  </outline>
</glyph>
<glyph name="registered" format="1">
  <advance width="512"/>
  <outline>
    <contour>
      <point x="479" y="504" type="curve" smooth="yes"/>
      <point x="479" y="377"/>
      <point x="383" y="280"/>
      <point x="255" y="280" type="curve" smooth="yes"/>
      <point x="128" y="280"/>
      <point x="33" y="375"/>
      <point x="33" y="503" type="curve" smooth="yes"/>
      <point x="33" y="631"/>
      <point x="129" y="727"/>
      <point x="257" y="727" type="curve" smooth="yes"/>
      <point x="384" y="727"/>
      <point x="479" y="632"/>
    </contour>
    <contour>
      <point x="451" y="503" type="curve" smooth="yes"/>
      <point x="451" y="618"/>
      <point x="370" y="703"/>
      <point x="255" y="703" type="curve" smooth="yes"/>
      <point x="141" y="703"/>
      <point x="61" y="618"/>
      <point x="61" y="504" type="curve" smooth="yes"/>
      <point x="61" y="390"/>
      <point x="142" y="305"/>
      <point x="257" y="305" type="curve" smooth="yes"/>
      <point x="371" y="305"/>
      <point x="451" y="389"/>
    </contour>
    <contour>
      <point x="369" y="380" type="line"/>
      <point x="302" y="380" type="line"/>
      <point x="246" y="480" type="line"/>
      <point x="231" y="480" type="line"/>
      <point x="231" y="380" type="line"/>
      <point x="168" y="380" type="line"/>
      <point x="168" y="636" type="line"/>
      <point x="263" y="636" type="line" smooth="yes"/>
      <point x="320" y="636"/>
      <point x="356" y="611"/>
      <point x="356" y="559" type="curve" smooth="yes"/>
      <point x="356" y="524"/>
      <point x="338" y="500"/>
      <point x="307" y="489" type="curve"/>
    </contour>
    <contour>
      <point x="295" y="558" type="curve" smooth="yes"/>
      <point x="295" y="581"/>
      <point x="281" y="592"/>
      <point x="256" y="592" type="curve" smooth="yes"/>
      <point x="227" y="592" type="line"/>
      <point x="227" y="522" type="line"/>
      <point x="256" y="522" type="line" smooth="yes"/>
      <point x="281" y="522"/>
      <point x="295" y="534"/>
    </contour>
  </outline>
</glyph>
